# xmcd
#
# Track frame offsets: 
#        150
#        12657
#        22989
#        35629
#        44764
#        56842
#        68044
#        79223
#        91732
#        104159
#        116400
#        128919
#        139316
#        153144
#        167687
#        180537
#        203061
#        239842
#        252788
#        266077
#        278420
#        293643
#        309616
#        322701
#
# Disc length: 4419 seconds
#
# Revision: 0
# Processed by: cddbd v1.5.2PL0 Copyright (c) Steve Scherf et al.
# Submitted via: ExactAudioCopy v0.99pb4
#
DISCID=58114118
DTITLE=Johnny Acey - My Home
DYEAR=1971
DGENRE=Soul
TTITLE0=Our Love Is Over
TTITLE1=Be Fair To Me
TTITLE2=Why
TTITLE3=Please Don't Go(Back To Baltimore)
TTITLE4=Baby Please Come Back(As Johnny Chef)
TTITLE5=Can't Stop Moving(As Johnny Chef)
TTITLE6=What Am I Going To Do
TTITLE7=I Go Into Orbit
TTITLE8=You Walked Out(And Left Me)
TTITLE9=Stay Away Love
TTITLE10=The Greatest Is You
TTITLE11=At The Same Time
TTITLE12=Don't Deceive Me
TTITLE13=Forever More
TTITLE14=My Home(Original)
TTITLE15=My Home
TTITLE16=The Watchman
TTITLE17=Can't Keep You Home
TTITLE18=You
TTITLE19=Nobody's Woman
TTITLE20=Love Stay Away
TTITLE21=Hungry For Affection
TTITLE22=Christmas Keeps Coming Pt 1
TTITLE23=Christmas Keeps Coming Pt 2
EXTD=
EXTT0=
EXTT1=
EXTT2=
EXTT3=
EXTT4=
EXTT5=
EXTT6=
EXTT7=
EXTT8=
EXTT9=
EXTT10=
EXTT11=
EXTT12=
EXTT13=
EXTT14=
EXTT15=
EXTT16=
EXTT17=
EXTT18=
EXTT19=
EXTT20=
EXTT21=
EXTT22=
EXTT23=
PLAYORDER=
